# xmcd CD database file
#
# Track frame offsets:
#	150
#	22522
#	41893
#	64413
#
# Disc length: 1111 seconds
#
# Revision: 8
# Processed by: cddbd v1.5.1PL0 Copyright (c) Steve Scherf et al.
# Submitted via: CDex 1.50
#
DISCID=2c045504
DTITLE=D-51 - NO MORE CRY
DYEAR=2005
DGENRE=Other
TTITLE0=NO MORE CRY
TTITLE1=BELIEVER
TTITLE2=NO MORE CRY (Karaoke)
TTITLE3=BELIEVER (Karaoke)
EXTD=YEAR: 2005
EXTT0=
EXTT1=
EXTT2=
EXTT3=
PLAYORDER=
